<?xml version="1.0" encoding="utf-8"?>
<!-- Generator: Adobe Illustrator 27.5.0, SVG Export Plug-In . SVG Version: 6.00 Build 0)  -->
<svg version="1.1" id="Layer_1" xmlns="http://www.w3.org/2000/svg" xmlns:xlink="http://www.w3.org/1999/xlink" x="0px" y="0px"
	 viewBox="0 0 288 288" style="enable-background:new 0 0 288 288;" xml:space="preserve">
<linearGradient id="SVGID_1_" gradientUnits="userSpaceOnUse" x1="144" y1="-43.0868" x2="144" y2="291.2092">
	<stop  offset="0" style="stop-color:#FFFFFF"/>
	<stop  offset="0.3543" style="stop-color:#F5F6F7"/>
	<stop  offset="0.9633" style="stop-color:#D9DEE1"/>
	<stop  offset="1" style="stop-color:#D7DCE0"/>
</linearGradient>
<rect style="fill-rule:evenodd;clip-rule:evenodd;fill:url(#SVGID_1_);" width="288" height="288"/>
<g>
	<g>
		<path style="fill:none;stroke:#003D74;stroke-width:6.3362;stroke-miterlimit:10;" d="M226.827,139.163v-2.084
			c0-6.904-5.596-12.5-12.5-12.5h-29.136c0.576-2.3,2.289-8.102,5.723-12.004c4.365-4.96,9.722-18.849,6.746-30.952
			c-2.976-12.104-10.516-17.063-14.881-13.492c-4.365,3.571-4.167,21.429-13.69,30.357c-9.524,8.929-20.04,26.984-24.604,29.564
			h-21.627v71.428h18.064c0,0,4.365,4.96,19.444,4.96c0.326,0-0.83-0.067,45.896-0.067c11.226,0,15.011-14.288,8.713-18.56
			c6.167-3.624,8.683-12.336,2.642-16.833c11.129-6.896,8.487-17.812,3.21-20.479C224.049,146.975,226.827,142.881,226.827,139.163z
			"/>
		<path style="fill:#0091E4;" d="M68.494,202.429c0,3.93,3.186,7.116,7.116,7.116h28.923c3.93,0,7.116-3.186,7.116-7.116v-76.93
			c0-3.93-3.186-7.116-7.116-7.116H75.609c-3.93,0-7.116,3.186-7.116,7.116V202.429z"/>
		<path style="opacity:0.4;fill:#0091E4;" d="M68.494,164.066v38.363c0,3.93,3.186,7.116,7.116,7.116h28.923
			c3.93,0,7.116-3.186,7.116-7.116v-38.363H68.494z"/>
		<path style="fill:none;stroke:#003D74;stroke-width:6.3362;stroke-miterlimit:10;" d="M68.494,202.429
			c0,3.93,3.186,7.116,7.116,7.116h28.923c3.93,0,7.116-3.186,7.116-7.116v-76.93c0-3.93-3.186-7.116-7.116-7.116H75.609
			c-3.93,0-7.116,3.186-7.116,7.116V202.429z"/>
	</g>
	<path style="fill:#ECEFF0;" d="M103.005,189.185c0,3.291-2.668,5.958-5.959,5.958c-3.291,0-5.959-2.667-5.959-5.958
		c0-3.292,2.668-5.959,5.959-5.959C100.337,183.226,103.005,185.894,103.005,189.185z"/>
</g>
</svg>
